<mxfile host="app.diagrams.net" modified="2021-07-21T09:13:33.710Z" agent="5.0 (Windows NT 10.0; Win64; x64) AppleWebKit/537.36 (KHTML, like Gecko) Chrome/91.0.4472.124 Safari/537.36" etag="0-RYvx4MuF7enNzZQR5y" version="14.8.0" type="github">
  <diagram id="aJjgu968Vq-au6hg9y1u" name="Page-1">
    <mxGraphModel dx="1422" dy="882" grid="1" gridSize="10" guides="1" tooltips="1" connect="1" arrows="1" fold="1" page="1" pageScale="1" pageWidth="827" pageHeight="1169" math="0" shadow="0">
      <root>
        <mxCell id="0" />
        <mxCell id="1" parent="0" />
        <mxCell id="dPUVTBNXQHpE9e4aYWHR-1" value="" style="rounded=1;whiteSpace=wrap;html=1;fontSize=14;fillColor=none;dashed=1;strokeWidth=1;" vertex="1" parent="1">
          <mxGeometry x="195" y="330" width="232.5" height="80" as="geometry" />
        </mxCell>
        <mxCell id="dPUVTBNXQHpE9e4aYWHR-2" value="" style="rounded=1;whiteSpace=wrap;html=1;fontSize=14;fillColor=none;dashed=1;strokeWidth=1;" vertex="1" parent="1">
          <mxGeometry x="95" y="430" width="336.5" height="105" as="geometry" />
        </mxCell>
        <mxCell id="dPUVTBNXQHpE9e4aYWHR-3" value="数据业务方&lt;br&gt;身份校验" style="rounded=0;whiteSpace=wrap;html=1;fontSize=14;" vertex="1" parent="1">
          <mxGeometry x="198.25" y="280" width="190" height="40" as="geometry" />
        </mxCell>
        <mxCell id="dPUVTBNXQHpE9e4aYWHR-4" value="加解密" style="rounded=0;whiteSpace=wrap;html=1;fontSize=14;" vertex="1" parent="1">
          <mxGeometry x="108.25" y="450" width="90" height="60" as="geometry" />
        </mxCell>
        <mxCell id="dPUVTBNXQHpE9e4aYWHR-5" value="文件导出上传" style="rounded=0;whiteSpace=wrap;html=1;fontSize=14;" vertex="1" parent="1">
          <mxGeometry x="218.25" y="450" width="90" height="60" as="geometry" />
        </mxCell>
        <mxCell id="dPUVTBNXQHpE9e4aYWHR-6" value="预览文件生成" style="rounded=0;whiteSpace=wrap;html=1;fontSize=14;" vertex="1" parent="1">
          <mxGeometry x="328.25" y="450" width="90" height="60" as="geometry" />
        </mxCell>
        <mxCell id="dPUVTBNXQHpE9e4aYWHR-7" value="限流" style="rounded=0;whiteSpace=wrap;html=1;fontSize=14;" vertex="1" parent="1">
          <mxGeometry x="198.25" y="250" width="190" height="20" as="geometry" />
        </mxCell>
        <mxCell id="dPUVTBNXQHpE9e4aYWHR-8" value="批量导出" style="rounded=0;whiteSpace=wrap;html=1;fontSize=14;" vertex="1" parent="1">
          <mxGeometry x="215" y="340" width="90" height="60" as="geometry" />
        </mxCell>
        <mxCell id="dPUVTBNXQHpE9e4aYWHR-9" value="预览查询" style="rounded=0;whiteSpace=wrap;html=1;fontSize=14;" vertex="1" parent="1">
          <mxGeometry x="325" y="340" width="90" height="60" as="geometry" />
        </mxCell>
        <mxCell id="dPUVTBNXQHpE9e4aYWHR-10" value="" style="shape=flexArrow;endArrow=classic;html=1;fontSize=14;entryX=0.5;entryY=0;entryDx=0;entryDy=0;" edge="1" parent="1">
          <mxGeometry width="50" height="50" relative="1" as="geometry">
            <mxPoint x="292.75" y="160" as="sourcePoint" />
            <mxPoint x="292.75" y="250" as="targetPoint" />
          </mxGeometry>
        </mxCell>
        <mxCell id="dPUVTBNXQHpE9e4aYWHR-11" value="数据代理服务" style="text;html=1;strokeColor=none;fillColor=none;align=left;verticalAlign=middle;whiteSpace=wrap;rounded=0;dashed=1;fontSize=17;" vertex="1" parent="1">
          <mxGeometry x="80" y="90" width="117.5" height="40" as="geometry" />
        </mxCell>
      </root>
    </mxGraphModel>
  </diagram>
</mxfile>
